HIERARCHY
ROOT Hips
{
  OFFSET 38.572 100.649 128.976
  CHANNELS 6 Xposition Yposition Zposition Zrotation Xrotation Yrotation
  JOINT RightUpLeg
  {
    OFFSET -8.9458 -8.66707 0.101652
    CHANNELS 3 Zrotation Xrotation Yrotation
    JOINT RightLeg
    {
      OFFSET 0 -44.4227 1.3727
      CHANNELS 3 Zrotation Xrotation Yrotation
      JOINT RightFoot
      {
        OFFSET 0.253549 -42.0924 -1.46059
        CHANNELS 3 Zrotation Xrotation Yrotation
        JOINT RightToes
        {
          OFFSET 0.04 -4.41509 8.4991
          CHANNELS 3 Zrotation Xrotation Yrotation
          End Site
          {
            OFFSET -0.08 -0.137448 9.77979
          }
        }
      }
    }
  }
  JOINT Spine
  {
    OFFSET 0 11.8905 0
    CHANNELS 3 Zrotation Xrotation Yrotation
    JOINT Spine1
    {
      OFFSET 0 25.6574 0.127663
      CHANNELS 3 Zrotation Xrotation Yrotation
      JOINT HEad
      {
        OFFSET 0 8.73416 0.011341
        CHANNELS 3 Zrotation Xrotation Yrotation
        End Site
        {
          OFFSET -0.29 12.7742 2.51395
        }
      }
      JOINT LeftShoulder1
      {
        OFFSET 8.99 -0.362252 -0.22
        CHANNELS 3 Zrotation Xrotation Yrotation
        JOINT LeftArm
        {
          OFFSET 10.2827 -0.00338 0.322123
          CHANNELS 3 Zrotation Xrotation Yrotation
          JOINT LeftForeArm
          {
            OFFSET 32.7669 0.099144 -1.42434
            CHANNELS 3 Zrotation Xrotation Yrotation
            JOINT LeftHand
            {
              OFFSET 27.5643 0.085362 1.02216
              CHANNELS 3 Zrotation Xrotation Yrotation
              End Site
              {
                OFFSET 16.7443 -0.6 1.50291
              }
            }
          }
        }
      }
      JOINT RightShoulder
      {
        OFFSET -8.99 -0.362252 -0.22
        CHANNELS 3 Zrotation Xrotation Yrotation
        JOINT RightArm
        {
          OFFSET -10.2827 -0.00338 0.322123
          CHANNELS 3 Zrotation Xrotation Yrotation
          JOINT RightForeArm
          {
            OFFSET -32.8971 0.099144 -1.42434
            CHANNELS 3 Zrotation Xrotation Yrotation
            JOINT RightHand
            {
              OFFSET -27.4921 0.085362 1.02216
              CHANNELS 3 Zrotation Xrotation Yrotation
              End Site
              {
                OFFSET -16.6312 -0.6 1.50291
              }
            }
          }
        }
      }
    }
  }
  JOINT LeftUpLeg
  {
    OFFSET 8.9458 -8.66707 0.101652
    CHANNELS 3 Zrotation Xrotation Yrotation
    JOINT LeftLeg
    {
      OFFSET 0 -44.4227 1.3727
      CHANNELS 3 Zrotation Xrotation Yrotation
      JOINT LeftFoot
      {
        OFFSET -0.253549 -42.0924 -1.46059
        CHANNELS 3 Zrotation Xrotation Yrotation
        JOINT LeftToes
        {
          OFFSET -0.04 -4.41509 8.4991
          CHANNELS 3 Zrotation Xrotation Yrotation
          End Site
          {
            OFFSET 0.08 -0.047448 9.77979
          }
        }
      }
    }
  }
}
MOTION
Frames:	8
Frame Time:	0.0166667
14.9775 101.796 115.393 3.06317 -3.61868 159.777 -14.1862 -9.67107 1.43655 18.4445 44.1884 -25.5048 7.36659 -15.8229 0.204763 0.0462048 0.000533403 0.662642 -1.99421 5.47031 4.48447 -1.77802 10.6306 8.94197 -6.9306 -11.207 13.1931 -1.19271e-015 6.36111e-015 -7.95139e-016 -128.886 -70.4053 -88.4864 -43.4385 67.8107 -75.385 32.4507 11.1747 -26.4512 15.9503 4.44245 21.2009 95.3849 -46.4288 51.1598 -15.2992 75.8777 145.083 -21.0123 24.9769 -34.7606 18.8304 -26.1717 4.82608 7.8303 34.0736 -25.6127 -18.3274 -6.68905 -0.391037 -1.31371e-009 1.56035e-007 -4.83539e-009 
15.0793 101.273 115.653 2.85829 -3.49706 161.63 -14.4854 -9.89806 1.40727 20.77 45.59 -29.0192 7.70397 -18.2122 0.384016 0.0462048 0.000533403 0.662642 -2.56975 5.81564 4.26464 -2.44757 11.2334 8.51511 -6.43611 -13.0071 12.5809 3.97569e-016 0 7.95139e-016 -134.325 -66.2296 -95.3448 -47.2591 68.7547 -68.7055 33.2361 11.1537 -25.7712 15.5381 4.40236 21.4473 98.9912 -46.9895 54.66 -17.4477 77.2093 147.033 -22.0901 25.0915 -33.8756 18.0618 -27.4109 5.91621 9.79437 34.1563 -28.793 -19.3138 -6.27689 -0.356974 -1.31371e-009 1.56035e-007 -4.83539e-009 
15.2133 100.871 115.981 2.61289 -3.56618 163.647 -14.5821 -10.3875 1.33011 22.0656 46.8881 -30.8976 7.95089 -18.9929 0.460915 0.0462048 0.000533403 0.662642 -3.05202 6.15192 4.09322 -3.16557 11.8327 8.21713 -6.033 -14.7055 11.7588 3.97569e-016 -6.36111e-015 -0 -136.757 -62.1544 -98.5686 -51.8673 69.2885 -61.6893 33.8609 11.1075 -25.3447 15.0741 4.34036 21.6445 102.151 -47.3627 57.78 -19.0716 78.3062 148.522 -23.2487 25.2101 -32.9294 17.1218 -28.7652 6.48291 11.6396 33.8694 -31.6876 -20.4003 -5.83643 -0.311841 -1.31371e-009 1.56035e-007 -4.8354e-009 
15.3663 100.594 116.336 2.40861 -3.84786 165.633 -14.4345 -11.1498 1.21624 22.2049 48.129 -30.9896 8.08165 -18.2343 0.419418 0.0462048 0.000533403 0.662642 -3.37442 6.45337 3.99701 -3.8117 12.3826 8.10669 -5.90145 -16.1663 10.7793 1.2921e-015 3.18055e-015 1.19271e-015 -137.561 -58.6539 -99.4278 -56.6908 69.3098 -55.1612 34.1516 11.0075 -25.3989 14.4564 4.22845 21.7561 104.881 -47.6623 60.5343 -19.6119 79.4175 148.989 -24.4012 25.3145 -31.8917 16.1675 -30.0092 6.49178 13.0819 33.3364 -34.084 -21.0225 -5.9757 -0.35223 -1.31371e-009 1.56035e-007 -4.83539e-009 
15.532 100.423 116.688 2.29342 -4.29217 167.411 -14.0516 -12.0769 1.07222 21.1731 49.2884 -29.2764 8.17487 -16.3486 0.291186 0.0462048 0.000533403 0.662642 -3.53496 6.70768 3.99116 -4.30032 12.8602 8.18973 -6.11236 -17.2978 9.74853 1.8108e-015 3.18055e-015 1.05604e-016 -137.494 -56.0033 -98.6914 -60.7023 68.9178 -50.2362 34.0067 10.8454 -26.0419 13.6212 4.05216 21.7709 107.401 -47.9345 63.0518 -18.9564 80.6938 148.272 -25.3607 25.3921 -30.8537 15.2998 -30.9786 6.19589 14.1873 32.6399 -36.1186 -20.9121 -6.92806 -0.518518 -1.31371e-009 1.56035e-007 -4.8354e-009 
15.7101 100.326 117.026 2.28296 -4.78418 168.879 -13.4763 -12.9815 0.911475 19.1175 50.2824 -25.9591 8.23866 -13.856 0.115253 0.0462048 0.000533403 0.662642 -3.55173 6.90867 4.0675 -4.62338 13.2516 8.43674 -6.55055 -18.0526 8.79033 -9.93923e-017 -3.18055e-015 3.97569e-016 -136.78 -54.3219 -96.7946 -63.0318 68.3567 -47.7322 33.4794 10.6456 -27.1728 12.675 3.8427 21.7269 109.789 -48.158 65.3976 -17.1964 82.0601 146.376 -25.9064 25.4513 -30.0002 14.5687 -31.6051 5.90269 15.1461 31.7857 -37.9572 -20.2353 -8.36348 -0.738983 -1.31371e-009 1.56035e-007 -4.83541e-009 
15.9055 100.27 117.352 2.35504 -5.18173 170.039 -12.7918 -13.6487 0.77297 16.372 50.9904 -21.5201 8.20845 -11.2293 -0.0738601 0.0462048 0.000533403 0.662642 -3.45357 7.05508 4.20945 -4.83212 13.5494 8.8169 -6.99151 -18.4267 7.96601 0 6.36111e-015 -0 -135.379 -53.5886 -94.0012 -63.4053 67.8743 -47.8098 32.7825 10.4555 -28.4757 11.8557 3.65681 21.6539 111.797 -48.2852 67.4599 -14.564 83.2536 143.481 -25.8927 25.5291 -29.5445 13.9562 -31.918 5.7339 16.0386 30.8018 -39.559 -19.341 -9.60592 -0.891088 -1.31371e-009 1.56035e-007 -4.83539e-009 
16.1242 100.236 117.668 2.46496 -5.37103 170.959 -12.1036 -13.9089 0.717683 13.3928 51.3367 -16.6112 8.05238 -8.87491 -0.241403 0.0462048 0.000533403 0.662642 -3.27394 7.15497 4.40062 -4.9753 13.7649 9.30111 -7.26068 -18.4585 7.26798 3.18055e-015 -6.36111e-015 -1.59028e-015 -133.276 -53.6992 -90.5295 -62.038 67.6153 -50.1348 32.1944 10.3157 -29.5454 11.3283 3.52586 21.5282 113.085 -48.2635 69.0229 -11.9292 83.9823 140.49 -25.2481 25.669 -29.692 13.4017 -31.9924 5.5794 16.7942 29.7969 -40.7085 -18.473 -10.0857 -0.89766 -1.31371e-009 1.56035e-007 -4.8354e-009 
